Coordinates
version=1
nRows=8
nColumns=63
inDegrees=yes

Units are S.I. units (second, meters, Newtons, ...)
If the header above contains a line with 'inDegrees', this indicates whether rotational values are in degrees (yes) or radians (no).

endheader
time	pelvis_tilt	pelvis_list	pelvis_rotation	pelvis_tx	pelvis_ty	pelvis_tz	hip_flexion_r	hip_adduction_r	hip_rotation_r	knee_angle_r	knee_angle_r_beta	ankle_angle_r	subtalar_angle_r	mtp_angle_r	hip_flexion_l	hip_adduction_l	hip_rotation_l	knee_angle_l	knee_angle_l_beta	ankle_angle_l	subtalar_angle_l	mtp_angle_l	L5_S1_Flex_Ext	L5_S1_Lat_Bending	L5_S1_axial_rotation	L4_L5_Flex_Ext	L4_L5_Lat_Bending	L4_L5_axial_rotation	L3_L4_Flex_Ext	L3_L4_Lat_Bending	L3_L4_axial_rotation	L2_L3_Flex_Ext	L2_L3_Lat_Bending	L2_L3_axial_rotation	L1_L2_Flex_Ext	L1_L2_Lat_Bending	L1_L2_axial_rotation	L1_T12_Flex_Ext	L1_T12_Lat_Bending	L1_T12_axial_rotation	Abs_r3	Abs_r2	Abs_r1	Abs_t1	Abs_t2	neck_flexion	neck_bending	neck_rotation	arm_flex_r	arm_add_r	arm_rot_r	elbow_flex_r	pro_sup_r	wrist_flex_r	wrist_dev_r	arm_flex_l	arm_add_l	arm_rot_l	elbow_flex_l	pro_sup_l	wrist_flex_l	wrist_dev_l
      3.46551724	      0.53589664	      3.37323033	     75.86301555	      0.22144515	      0.88592136	      0.52568816	      1.27716418	      5.93683890	      9.21337462	     12.99581654	      0.22681979	     33.65337753	    -12.59960974	      0.00000000	      0.32257491	     -5.45195050	      6.76833830	      9.73064235	      0.16983175	     40.32806344	     10.75110622	      0.00000000	      0.11376683	      0.75104390	     -0.24914073	      0.21127637	      0.99888839	     -0.26471202	      0.18690752	      1.82608815	     -0.26471202	      0.13002410	      1.82608815	     -0.21799814	      0.10564387	      1.53152873	     -0.20242684	      0.06500636	      1.16336701	     -0.18685555	      0.81262506	      8.49595885	     -1.38564599	      0.00000000	      0.00000000	     11.53833357	      1.14257091	     21.98456967	    -10.24983270	    -84.63554094	   -104.43325079	    105.08442111	     83.29124936	      7.21338685	     17.52231259	    -30.58961318	    -66.65775158	   -117.02520057	    117.32158597	     25.09713342	     -6.09719752	     14.53467906
      3.48275862	      0.95193731	      4.46267907	     76.16295006	      0.22250712	      0.88609979	      0.52079911	      0.12763205	      6.23623701	      9.22482143	     13.71835763	      0.23943051	     35.09160474	    -12.39627009	      0.00000000	     -0.26975853	     -5.74430190	      6.43968986	     11.66883019	      0.20365951	     42.08444408	     12.02179566	      0.00000000	      0.08815088	      0.73486164	     -0.24502051	      0.16370500	      0.97736598	     -0.26033429	      0.14482308	      1.78674259	     -0.26033429	      0.10074764	      1.78674259	     -0.21439295	      0.08185691	      1.49852986	     -0.19907916	      0.05036941	      1.13830068	     -0.18376538	      0.62965293	      8.31290185	     -1.36273057	      0.00000000	      0.00000000	     11.57770123	      1.12968211	     20.40655073	     16.76961802	    -82.65737856	    -81.36262495	    106.64049164	     84.31113577	      8.80539501	     17.01855738	    -24.25687578	    -66.57591689	   -112.86846209	    118.51312624	     28.28630654	     -6.44458644	     14.33485622
      3.50000000	      1.30154053	      5.61640805	     76.56653062	      0.22393304	      0.88625398	      0.51636607	     -1.02472484	      6.52490561	      9.07596028	     14.46435579	      0.25245063	     36.60781152	    -12.05796220	      0.00000000	     -0.89962970	     -5.96376175	      6.75231291	     13.63846349	      0.23803609	     43.50632909	     12.56452490	      0.00000000	      0.05895270	      0.69770075	     -0.20125694	      0.10948105	      0.92794199	     -0.21383550	      0.09685338	      1.69638960	     -0.21383550	      0.06737704	      1.69638960	     -0.17609983	      0.05474347	      1.42275136	     -0.16352127	      0.03368557	      1.08073846	     -0.15094271	      0.42109321	      7.89253039	     -1.11933075	      0.00000000	      0.00000000	     11.18037214	      1.42519032	     18.40854664	     22.64525857	    -80.05279535	    -78.11935720	    108.49922352	     84.26495950	      7.69551938	     14.87822299	    -14.75086988	    -66.57835180	   -106.17829319	    119.62136928	     33.02879806	     -6.14778641	     14.75939942
      3.51724138	      1.78277329	      6.71055041	     77.00010751	      0.22483015	      0.88617788	      0.51257956	     -2.02259635	      6.86100097	      8.00841168	     15.29236832	      0.26690218	     38.24697211	    -10.50570286	      0.00000000	     -1.37028019	     -6.27040467	      7.59625935	     15.80641565	      0.27587400	     44.78549566	     12.57874259	      0.00000000	      0.01536663	      0.68565055	     -0.42322632	      0.02853737	      0.91191523	     -0.44967797	      0.02524584	      1.66709075	     -0.44967797	      0.01756252	      1.66709075	     -0.37032303	      0.01426945	      1.39817861	     -0.34387139	      0.00878049	      1.06207271	     -0.31741974	      0.10976231	      7.75621618	     -2.35385784	      0.00000000	      0.00000000	     10.33551653	      2.14857387	     18.08033241	     34.22557382	    -76.41670450	    -68.41081359	    110.36377840	     84.03134128	      5.69276117	     13.12979803	     -9.62422238	    -65.54830974	   -104.52978959	    120.74812643	     36.61520433	     -4.58899605	     16.03677166
      3.53448276	      2.34120366	      7.78715803	     77.40928519	      0.22590688	      0.88605447	      0.50899573	     -3.00337308	      7.32558529	      7.20487158	     16.07252538	      0.28051849	     39.63009330	     -9.29059946	      0.00000000	     -1.89083471	     -6.65990195	      8.61161523	     17.89014281	      0.31224190	     45.70608962	     12.48262964	      0.00000000	     -0.02913285	      0.67834907	     -0.58905971	     -0.05410262	      0.90220426	     -0.62587594	     -0.04786236	      1.64933792	     -0.62587594	     -0.03329593	      1.64933792	     -0.51542725	     -0.02705276	      1.38328942	     -0.47861102	     -0.01664651	      1.05076270	     -0.44179478	     -0.20809303	      7.67362032	     -3.27617339	      0.00000000	      0.00000000	      9.43608918	      2.85388187	     17.29187947	     34.34841450	    -73.40198760	    -67.97120657	    112.56212820	     82.45082529	      0.19803985	     10.13112649	     -4.24724835	    -64.42787891	   -102.15093272	    121.98965807	     38.93478976	     -2.36984951	     18.48735497
      3.55172414	      2.70249150	      8.87967285	     77.80622846	      0.22747102	      0.88583243	      0.50569263	     -3.84711357	      7.48342031	      5.43495489	     16.96963731	      0.29617604	     41.17232466	     -6.91152745	      0.00000000	     -2.45073859	     -6.83308817	      9.84725607	     19.81101692	      0.34576747	     46.18680572	     12.11532172	      0.00000000	     -0.06425546	      0.62823971	     -0.54578473	     -0.11932882	      0.83555882	     -0.57989628	     -0.10556530	      1.52750204	     -0.57989628	     -0.07343757	      1.52750204	     -0.47756164	     -0.05966762	      1.28110642	     -0.44345010	     -0.03671557	      0.97314332	     -0.40933855	     -0.45897034	      7.10677328	     -3.03549096	      0.00000000	      0.00000000	      8.44867004	      3.66143315	     14.84194895	     25.12999211	    -71.35105111	    -75.63521911	    115.32897903	     79.67183868	     -6.68211349	      7.26153829	      2.77073160	    -63.52530595	    -96.52065753	    123.39029867	     40.86000952	     -0.66526713	     20.99143879
      3.56896552	      3.15680389	      9.92639212	     77.97653682	      0.22888092	      0.88557780	      0.50260652	     -4.65639833	      7.66976427	      3.78201961	     17.82330620	      0.31107538	     42.42213519	     -4.63034968	      0.00000000	     -3.06053297	     -7.06233920	     10.89264437	     21.62901173	      0.37749747	     46.36690359	     11.69425819	      0.00000000	     -0.10759240	      0.60354223	     -0.43683720	     -0.19980985	      0.80271117	     -0.46413953	     -0.17676356	      1.46745258	     -0.46413953	     -0.12296736	      1.46745258	     -0.38223255	     -0.09991030	      1.23074332	     -0.35493023	     -0.06147830	      0.93488692	     -0.32762790	     -0.76852177	      6.82739044	     -2.42955748	      0.00000000	      0.00000000	      7.42031565	      4.13603822	     12.52801585	     15.86124096	    -69.33584626	    -82.95890862	    118.33618356	     76.13632200	    -12.76219066	      4.55928355	      6.78218448	    -62.15433313	    -92.15709067	    124.89681494	     42.11422226	      0.48062165	     22.78930576
      3.58620690	      3.50977684	     10.77673026	     77.93431060	      0.23074349	      0.88516405	      0.49941945	     -5.29705532	      7.86258942	      3.01753747	     18.58245418	      0.32432501	     43.24617724	     -3.35841316	      0.00000000	     -3.60592939	     -7.24106476	     11.54600747	     23.17649066	      0.40450607	     46.29399552	     11.29980624	      0.00000000	     -0.12574761	      0.57711705	     -0.39929059	     -0.23352589	      0.76756568	     -0.42424626	     -0.20659075	      1.40320240	     -0.42424626	     -0.14371695	      1.40320240	     -0.34937927	     -0.11676923	      1.17685709	     -0.32442361	     -0.07185219	      0.89395431	     -0.29946795	     -0.89820262	      6.52846352	     -2.22073450	      0.00000000	      0.00000000	      6.17147443	      4.67025354	     11.04877865	     10.26409293	    -66.69627963	    -86.96512258	    121.63008083	     74.42618280	    -15.06549312	      3.41939288	      5.17801301	    -61.07444442	    -92.02355983	    126.58286397	     44.00698991	      1.01479070	     24.07993559
